
<svg xmlns="http://www.w3.org/2000/svg" viewBox="0 0 240 240" fill="none">
  <defs>
    <linearGradient id="lg" x1="0" y1="0" x2="1" y2="1">
      <stop offset="0%" stop-color="#e8c987"></stop>
      <stop offset="60%" stop-color="#c9a55c"></stop>
      <stop offset="100%" stop-color="#7a5a28"></stop>
    </linearGradient>
    <linearGradient id="rose" x1="0" y1="0" x2="0" y2="1">
      <stop offset="0%" stop-color="#a01828"></stop>
      <stop offset="100%" stop-color="#3a0810"></stop>
    </linearGradient>
  </defs>

  
  <g stroke="url(#lg)" stroke-width="1.2" fill="none" opacity="0.9">
    <path d="M10 230 Q 60 180, 100 140 Q 150 90, 220 30"></path>
    <path d="M50 200 q -16 8 -28 28"></path>
    <path d="M90 160 q -22 4 -40 22"></path>
    <path d="M130 120 q -24 -4 -44 12"></path>
    <path d="M170 80 q -22 -10 -42 0"></path>
    <path d="M30 224 q 12 -22 36 -28"></path>
    <path d="M70 184 q 14 -20 38 -24"></path>
    <path d="M110 144 q 14 -18 38 -22"></path>
    <path d="M150 104 q 16 -14 38 -16"></path>
  </g>

  
  <g fill="url(#lg)" opacity="0.85">
    <ellipse cx="40" cy="216" rx="10" ry="4" transform="rotate(-30 40 216)"></ellipse>
    <ellipse cx="78" cy="178" rx="11" ry="4" transform="rotate(-32 78 178)"></ellipse>
    <ellipse cx="118" cy="138" rx="11" ry="4" transform="rotate(-30 118 138)"></ellipse>
    <ellipse cx="160" cy="96" rx="10" ry="4" transform="rotate(-28 160 96)"></ellipse>
    <ellipse cx="60" cy="220" rx="9" ry="4" transform="rotate(40 60 220)"></ellipse>
    <ellipse cx="100" cy="180" rx="10" ry="4" transform="rotate(38 100 180)"></ellipse>
    <ellipse cx="140" cy="138" rx="10" ry="4" transform="rotate(34 140 138)"></ellipse>
    <ellipse cx="184" cy="96" rx="9" ry="3.5" transform="rotate(30 184 96)"></ellipse>
  </g>

  
  <g>
    <g transform="translate(20 222)">
      <circle r="12" fill="url(#rose)"></circle>
      <path d="M-6 -2 Q 0 -8 6 -2 Q 4 4 0 4 Q -4 4 -6 -2 Z" fill="#5a121e" opacity="0.7"></path>
      <circle r="3" fill="#3a0810"></circle>
    </g>
    <g transform="translate(108 124)">
      <circle r="14" fill="url(#rose)"></circle>
      <path d="M-7 -3 Q 0 -10 7 -3 Q 5 5 0 5 Q -5 5 -7 -3 Z" fill="#5a121e" opacity="0.7"></path>
      <circle r="4" fill="#3a0810"></circle>
    </g>
    <g transform="translate(196 30)">
      <circle r="11" fill="url(#rose)"></circle>
      <path d="M-5 -2 Q 0 -7 5 -2 Q 4 4 0 4 Q -4 4 -5 -2 Z" fill="#5a121e" opacity="0.7"></path>
      <circle r="3" fill="#3a0810"></circle>
    </g>
    <g transform="translate(70 168) scale(0.7)">
      <circle r="10" fill="url(#rose)"></circle>
      <circle r="3" fill="#3a0810"></circle>
    </g>
  </g>
</svg>